<svg xmlns="http://www.w3.org/2000/svg" viewBox="0 0 200 320">
  <!-- Puppet Stick -->
  <rect x="96" y="240" width="8" height="80" rx="2" fill="#3D2B1F"/>
  <ellipse cx="100" cy="240" rx="10" ry="4" fill="#3D2B1F"/>

  <!-- Ghostly trailing bottom - wispy tattered edges -->
  <path d="M60,200 Q55,220 50,240 Q48,250 55,255 Q58,260 52,270 Q50,278 58,275
           L70,265 Q68,275 65,285 Q63,290 70,288
           L80,278 Q78,288 76,295 Q75,300 82,296
           L90,285 Q88,295 87,302 Q86,308 93,304
           L100,292 Q100,302 100,310 Q100,316 107,310
           L110,298 Q112,306 114,312 Q116,318 120,310
           L125,295 Q128,304 130,310 Q132,314 136,306
           L138,290 Q142,298 145,303 Q148,306 150,298
           L148,278 Q152,282 155,275 Q158,268 152,265
           L145,258 Q150,252 148,245 Q146,238 140,230
           Q135,220 140,200
           Z" fill="#1A1A2E"/>

  <!-- Flowing cloak/robe body -->
  <path d="M60,200 Q55,170 58,140 Q60,120 70,105 Q75,98 80,95
           L82,90 Q85,85 90,82 Q95,78 100,76 Q105,78 110,82 Q115,85 118,90
           L120,95 Q125,98 130,105 Q140,120 142,140 Q145,170 140,200
           Q135,190 130,185 Q120,180 100,178 Q80,180 70,185 Q65,190 60,200
           Z" fill="#1A1A2E"/>

  <!-- Raised right arm - dramatic pose -->
  <path d="M130,120 Q140,110 148,95 Q152,85 155,70 Q157,60 160,55
           Q163,50 165,48 Q168,46 170,48 Q172,52 170,58
           Q168,65 165,72 Q160,82 155,90 Q148,102 140,115
           Z" fill="#1A1A2E"/>

  <!-- Left arm - flowing downward -->
  <path d="M70,120 Q60,130 52,145 Q48,155 45,165 Q43,172 40,178
           Q38,182 36,180 Q34,176 36,170
           Q38,160 42,148 Q48,135 58,122
           Z" fill="#1A1A2E"/>

  <!-- Head -->
  <ellipse cx="100" cy="68" rx="22" ry="26" fill="#1A1A2E"/>

  <!-- Wispy head tendrils/hair -->
  <path d="M80,48 Q75,38 72,30 Q70,25 73,28 Q76,34 80,42 Z" fill="#1A1A2E"/>
  <path d="M90,44 Q88,32 85,24 Q83,18 87,22 Q90,28 92,38 Z" fill="#1A1A2E"/>
  <path d="M110,44 Q112,32 115,24 Q117,18 113,22 Q110,28 108,38 Z" fill="#1A1A2E"/>
  <path d="M120,48 Q125,38 128,30 Q130,25 127,28 Q124,34 120,42 Z" fill="#1A1A2E"/>

  <!-- Hollow round eyes -->
  <circle cx="90" cy="63" r="5" fill="#F4E4C1"/>
  <circle cx="110" cy="63" r="5" fill="#F4E4C1"/>

  <!-- Thin mouth -->
  <rect x="92" y="78" width="16" height="2" rx="1" fill="#F4E4C1"/>
</svg>
