<svg xmlns="http://www.w3.org/2000/svg" viewBox="0 0 200 320">
  <!-- Puppet Stick -->
  <rect x="96" y="250" width="8" height="70" rx="2" fill="#3D2B1F"/>
  <ellipse cx="100" cy="250" rx="10" ry="4" fill="#3D2B1F"/>

  <!-- Left leg - sturdy -->
  <rect x="72" y="210" width="20" height="42" rx="4" fill="#1A1A2E"/>
  <!-- Right leg - sturdy -->
  <rect x="108" y="210" width="20" height="42" rx="4" fill="#1A1A2E"/>

  <!-- Left boot -->
  <path d="M68,248 L68,258 Q68,262 72,262 L96,262 Q98,262 98,258 L98,248 Q98,244 94,244 L72,244 Q68,244 68,248 Z" fill="#1A1A2E"/>
  <!-- Right boot -->
  <path d="M102,248 L102,258 Q102,262 106,262 L130,262 Q132,262 132,258 L132,248 Q132,244 128,244 L106,244 Q102,244 102,248 Z" fill="#1A1A2E"/>

  <!-- Box/crate body - stout and wide -->
  <rect x="55" y="120" width="90" height="95" rx="6" fill="#1A1A2E"/>

  <!-- Apron -->
  <path d="M70,145 L70,210 Q70,215 75,215 L125,215 Q130,215 130,210 L130,145 Z" fill="#1A1A2E" stroke="#F4E4C1" stroke-width="1.5" stroke-dasharray="none"/>
  <!-- Apron top strap -->
  <path d="M80,145 L80,130 Q80,125 85,125 L115,125 Q120,125 120,130 L120,145" fill="none" stroke="#F4E4C1" stroke-width="1.5"/>
  <!-- Apron pocket -->
  <rect x="85" y="170" width="30" height="20" rx="2" fill="none" stroke="#F4E4C1" stroke-width="1"/>

  <!-- Left arm holding something -->
  <path d="M55,135 Q42,140 35,150 Q30,158 28,168 Q26,175 30,178 Q34,180 38,176 Q42,170 45,160 Q48,152 55,148 Z" fill="#1A1A2E"/>

  <!-- Shield/prop held in left hand -->
  <path d="M15,140 Q10,155 12,172 Q14,185 20,195 Q28,205 35,200 Q40,195 38,185 Q36,175 35,165 Q34,155 32,148 Q30,140 25,135 Q20,132 15,140 Z" fill="#1A1A2E"/>
  <!-- Shield detail lines -->
  <line x1="22" y1="145" x2="28" y2="190" stroke="#F4E4C1" stroke-width="1"/>
  <line x1="18" y1="165" x2="34" y2="170" stroke="#F4E4C1" stroke-width="1"/>

  <!-- Right arm - resting at side -->
  <path d="M145,135 Q155,142 160,152 Q164,162 165,172 Q166,178 162,180 Q158,180 156,174 Q153,164 150,155 Q148,148 145,145 Z" fill="#1A1A2E"/>

  <!-- Right hand holding a hammer prop -->
  <rect x="158" y="165" width="5" height="28" rx="1" fill="#1A1A2E"/>
  <rect x="153" y="158" width="15" height="10" rx="2" fill="#1A1A2E"/>

  <!-- Head - slightly square/stout -->
  <rect x="75" y="72" width="50" height="50" rx="12" fill="#1A1A2E"/>

  <!-- Small practical eyes -->
  <rect x="85" y="90" width="8" height="5" rx="2" fill="#F4E4C1"/>
  <rect x="107" y="90" width="8" height="5" rx="2" fill="#F4E4C1"/>

  <!-- Small firm mouth -->
  <rect x="92" y="106" width="16" height="3" rx="1" fill="#F4E4C1"/>

  <!-- Flat cap/hat -->
  <path d="M70,78 Q70,65 100,62 Q130,65 130,78 L70,78 Z" fill="#1A1A2E"/>
  <rect x="68" y="76" width="64" height="5" rx="2" fill="#1A1A2E"/>
</svg>
