<svg xmlns="http://www.w3.org/2000/svg" viewBox="0 0 200 320">
  <!-- Pip, the Nimble - Small figure with pointy hat and scarf -->

  <!-- Puppet stick -->
  <rect x="94" y="250" width="10" height="70" fill="#3D2B1F" rx="2"/>

  <!-- Pointy wizard hat (oversized) -->
  <polygon points="100,10 140,100 60,100" fill="#1A1A2E"/>
  <!-- Hat brim -->
  <ellipse cx="100" cy="100" rx="45" ry="12" fill="#1A1A2E"/>

  <!-- Head - smaller and rounder than Bron -->
  <circle cx="100" cy="115" r="35" fill="#1A1A2E"/>

  <!-- Trailing scarf - flowing to the left -->
  <path d="M65 120 Q30 130 25 160 Q20 190 40 200 Q55 195 50 170 Q55 150 65 140" fill="#1A1A2E"/>

  <!-- Body - slim and small -->
  <ellipse cx="100" cy="185" rx="30" ry="35" fill="#1A1A2E"/>

  <!-- Left arm (with wand/dagger) -->
  <ellipse cx="60" cy="175" rx="12" ry="22" fill="#1A1A2E"/>
  <!-- Wand -->
  <rect x="40" y="155" width="6" height="35" rx="1" fill="#1A1A2E" transform="rotate(-20 43 172)"/>

  <!-- Right arm -->
  <ellipse cx="140" cy="175" rx="12" ry="22" fill="#1A1A2E"/>

  <!-- Legs - thin and nimble -->
  <ellipse cx="85" cy="235" rx="12" ry="25" fill="#1A1A2E"/>
  <ellipse cx="115" cy="235" rx="12" ry="25" fill="#1A1A2E"/>

  <!-- Eye cutouts (backlight showing through) - large and expressive -->
  <g id="pip-eyes">
    <circle cx="88" cy="110" r="7" fill="#F4E4C1"/>
    <circle cx="112" cy="110" r="7" fill="#F4E4C1"/>
  </g>

  <!-- Mouth cutout - small and mischievous -->
  <g id="pip-mouth">
    <ellipse cx="100" cy="130" rx="8" ry="4" fill="#F4E4C1"/>
  </g>

  <!-- Star decoration on hat (cutout) -->
  <polygon points="100,35 103,45 114,45 105,52 109,63 100,56 91,63 95,52 86,45 97,45" fill="#F4E4C1"/>
</svg>
